<svg width="32.000000" height="32.000000" viewBox="0 0 32 32" fill="none" xmlns="http://www.w3.org/2000/svg" xmlns:xlink="http://www.w3.org/1999/xlink">
	<desc>
			Created with Pixso.
	</desc>
	<defs/>
	<g opacity="0.000100">
		<rect id="Rectangle" width="32.000000" height="32.000000" fill="#000000" fill-opacity="1.000000"/>
	</g>
	<path id="Shape" d="M27.6133 25.72L23.0801 21.2C24.5425 19.3366 25.3364 17.0356 25.3335 14.6667C25.3335 8.77563 20.5576 4 14.6665 4C8.77539 4 4 8.77563 4 14.6667C4 20.5577 8.77539 25.3333 14.6665 25.3333C17.0356 25.3363 19.3364 24.5426 21.2002 23.08L25.7202 27.6133C25.9702 27.8658 26.311 28.0077 26.6665 28.0077C27.022 28.0077 27.3628 27.8658 27.6133 27.6133C27.8657 27.363 28.0078 27.0222 28.0078 26.6667C28.0078 26.3112 27.8657 25.9704 27.6133 25.72ZM14.6665 6.66666C10.2485 6.66666 6.6665 10.2484 6.6665 14.6667C6.6665 19.0849 10.2485 22.6667 14.6665 22.6667C19.085 22.6667 22.6665 19.0849 22.6665 14.6667C22.6665 10.2484 19.085 6.66666 14.6665 6.66666Z" clip-rule="evenodd" fill="#FFFFFF" fill-opacity="1.000000" fill-rule="evenodd"/>
</svg>
